<svg width="720" height="527" viewBox="0 0 720 527" fill="none" xmlns="http://www.w3.org/2000/svg">
    <g filter="url(#filter0_d_232_549)">
        <path d="M495.458 419.891L35.2409 296.576L224.749 107.068L684.966 230.383L495.458 419.891Z"
              fill="#3D2B93"/>
        <path d="M142.99 208.266L572.549 323.366" stroke="#573CDA" stroke-linecap="round"
              stroke-linejoin="round"/>
        <path d="M154.854 196.404L584.412 311.505" stroke="#573CDA" stroke-linecap="round"
              stroke-linejoin="round"/>
        <path d="M166.713 184.544L596.272 299.644" stroke="#573CDA" stroke-linecap="round"
              stroke-linejoin="round"/>
        <path d="M178.576 172.682L608.135 287.782" stroke="#573CDA" stroke-linecap="round"
              stroke-linejoin="round"/>
        <path d="M190.434 160.821L619.992 275.922" stroke="#573CDA" stroke-linecap="round"
              stroke-linejoin="round"/>
        <path d="M202.297 148.96L631.856 264.06" stroke="#573CDA" stroke-linecap="round"
              stroke-linejoin="round"/>
        <path d="M214.16 137.098L643.719 252.198" stroke="#573CDA" stroke-linecap="round"
              stroke-linejoin="round"/>
        <path d="M226.016 125.238L655.574 240.338" stroke="#573CDA" stroke-linecap="round"
              stroke-linejoin="round"/>
        <path
                d="M237.07 263.671L132.658 235.694C130.161 235.025 129.845 232.75 131.956 230.639L131.956 230.639C133.052 229.58 134.38 228.791 135.835 228.336C137.29 227.881 138.83 227.772 140.335 228.018L244.746 255.995C247.244 256.664 247.56 258.938 245.449 261.05C244.353 262.109 243.024 262.898 241.57 263.353C240.115 263.808 238.574 263.917 237.07 263.671Z"
                fill="#573CDA"/>
        <path
                d="M220.095 280.645L115.684 252.668C113.186 251.999 112.87 249.724 114.981 247.613C116.077 246.553 117.405 245.765 118.86 245.31C120.315 244.854 121.856 244.745 123.36 244.991L227.772 272.968C230.269 273.637 230.585 275.912 228.474 278.023C227.378 279.082 226.05 279.871 224.595 280.326C223.14 280.781 221.599 280.89 220.095 280.645Z"
                fill="#573CDA"/>
        <path
                d="M203.12 297.619L98.7091 269.642C96.2116 268.973 95.8955 266.698 98.0065 264.587C99.1025 263.528 100.431 262.739 101.886 262.284C103.34 261.829 104.881 261.72 106.386 261.966L210.797 289.943C213.294 290.612 213.61 292.887 211.499 294.998C210.403 296.057 209.075 296.846 207.62 297.301C206.166 297.756 204.625 297.865 203.12 297.619V297.619Z"
                fill="#573CDA"/>
        <path
                d="M173.557 311.222L94.3184 289.99C91.821 289.321 91.5049 287.046 93.6159 284.935C94.7119 283.876 96.0402 283.087 97.4949 282.632C98.9496 282.177 100.49 282.068 101.995 282.313L181.233 303.545C183.731 304.215 184.047 306.489 181.936 308.6C180.84 309.66 179.512 310.448 178.057 310.903C176.602 311.359 175.061 311.468 173.557 311.222V311.222Z"
                fill="#573CDA"/>
        <path
                d="M391.072 304.934L286.66 276.957C284.163 276.287 283.847 274.013 285.958 271.902C287.054 270.842 288.382 270.054 289.837 269.599C291.291 269.144 292.832 269.034 294.337 269.28L398.748 297.257C401.245 297.927 401.561 300.201 399.45 302.312L399.45 302.312C398.355 303.372 397.026 304.16 395.572 304.615C394.117 305.07 392.576 305.18 391.072 304.934V304.934Z"
                fill="#573CDA"/>
        <path
                d="M374.097 321.907L269.686 293.93C267.188 293.261 266.872 290.987 268.983 288.876C270.079 287.816 271.407 287.027 272.862 286.572C274.317 286.117 275.858 286.008 277.362 286.254L381.773 314.231C384.271 314.9 384.587 317.175 382.476 319.286C381.38 320.345 380.052 321.134 378.597 321.589C377.142 322.044 375.601 322.153 374.097 321.907V321.907Z"
                fill="#573CDA"/>
        <path
                d="M357.122 338.882L252.711 310.905C250.214 310.236 249.897 307.961 252.009 305.85C253.104 304.791 254.433 304.002 255.887 303.547C257.342 303.092 258.883 302.983 260.387 303.229L364.799 331.206C367.296 331.875 367.612 334.149 365.501 336.26C364.405 337.32 363.077 338.108 361.622 338.564C360.168 339.019 358.627 339.128 357.122 338.882V338.882Z"
                fill="#573CDA"/>
        <path
                d="M327.559 352.485L248.32 331.253C245.823 330.583 245.507 328.309 247.618 326.198C248.714 325.138 250.042 324.35 251.497 323.895C252.952 323.439 254.492 323.33 255.997 323.576L335.235 344.808C337.733 345.477 338.049 347.752 335.938 349.863C334.842 350.922 333.513 351.711 332.059 352.166C330.604 352.621 329.063 352.73 327.559 352.485V352.485Z"
                fill="#573CDA"/>
        <path
                d="M545.07 346.197L440.658 318.22C438.161 317.551 437.845 315.276 439.956 313.166L439.956 313.165C441.052 312.106 442.38 311.318 443.835 310.862C445.289 310.407 446.83 310.298 448.335 310.544L552.746 338.521C555.243 339.19 555.56 341.465 553.449 343.576C552.353 344.635 551.024 345.424 549.57 345.879C548.115 346.334 546.574 346.443 545.07 346.197V346.197Z"
                fill="#573CDA"/>
        <path
                d="M528.095 363.171L423.684 335.194C421.186 334.525 420.87 332.25 422.981 330.139L422.981 330.139C424.077 329.08 425.406 328.291 426.86 327.836C428.315 327.381 429.856 327.272 431.36 327.518L535.772 355.495C538.269 356.164 538.585 358.438 536.474 360.55C535.378 361.609 534.05 362.398 532.595 362.853C531.14 363.308 529.599 363.417 528.095 363.171Z"
                fill="#573CDA"/>
        <path
                d="M511.12 380.146L406.709 352.169C404.212 351.5 403.896 349.225 406.007 347.114C407.103 346.054 408.431 345.266 409.886 344.811C411.34 344.355 412.881 344.246 414.386 344.492L518.797 372.469C521.294 373.138 521.61 375.413 519.499 377.524C518.403 378.583 517.075 379.372 515.62 379.827C514.166 380.282 512.625 380.391 511.12 380.146V380.146Z"
                fill="#573CDA"/>
        <path
                d="M481.557 393.748L402.318 372.516C399.821 371.847 399.505 369.572 401.616 367.461C402.712 366.402 404.04 365.613 405.495 365.158C406.95 364.703 408.491 364.594 409.995 364.84L489.233 386.072C491.731 386.741 492.047 389.016 489.936 391.127C488.84 392.186 487.512 392.975 486.057 393.43C484.602 393.885 483.061 393.994 481.557 393.748V393.748Z"
                fill="#573CDA"/>
        <path
                d="M209.73 173.48C226.098 157.112 257.494 148.699 279.854 154.691C291.062 157.694 297.87 163.746 299.814 171.098L319.733 165.785C317.009 155.48 307.467 146.996 291.757 142.787C260.417 134.389 216.412 146.181 193.469 169.123C190.899 171.671 188.57 174.453 186.514 177.432L204.768 179.408C206.235 177.283 207.896 175.298 209.73 173.48Z"
                fill="#88CFB2"/>
        <path
                d="M290.701 195.176C274.333 211.545 242.937 219.957 220.577 213.966L208.674 225.869C240.014 234.267 284.019 222.476 306.961 199.533C318.404 188.091 322.443 176.037 319.733 165.784L299.813 171.098C301.747 178.413 298.865 187.013 290.701 195.176Z"
                fill="#BCC1CF"/>
        <path
                d="M208.674 225.869L220.577 213.966C200.893 208.691 194.782 194.013 204.767 179.408L186.513 177.432C172.519 197.902 181.084 218.477 208.674 225.869Z"
                fill="#EDC998"/>
        <path
                d="M433.861 195.952C448.92 199.987 456.025 209.527 454.07 220.326L474.09 218.212C476.83 203.076 466.871 189.704 445.765 184.048C419.687 177.061 384.852 184.06 360.667 199.822L373.148 207.205C390.403 195.96 415.256 190.967 433.861 195.952Z"
                fill="#EDC998"/>
        <path
                d="M444.705 236.439C436.709 244.435 425.126 250.524 412.764 253.972L416.195 265.37C433.523 260.538 449.759 252.003 460.965 240.796C468.457 233.304 472.757 225.552 474.086 218.213L454.066 220.327C453.118 225.563 450.05 231.094 444.705 236.439Z"
                fill="#88CFB2"/>
        <path
                d="M400.128 256.527L398.484 268.952C404.468 268.193 410.388 266.996 416.196 265.37L412.765 253.972C408.621 255.131 404.397 255.986 400.128 256.527V256.527Z"
                fill="#EDC998"/>
        <path
                d="M374.584 255.228C363.189 252.175 356.352 245.967 354.541 238.449L334.588 243.614C337.126 254.151 346.709 262.852 362.68 267.132C374.391 270.014 386.544 270.632 398.486 268.952L400.13 256.527C391.61 257.726 382.939 257.285 374.584 255.228Z"
                fill="#E08297"/>
        <path
                d="M334.584 243.615L354.537 238.451C352.795 231.217 355.705 222.77 363.732 214.743C366.6 211.913 369.754 209.387 373.143 207.207L360.662 199.823C355.912 202.879 351.492 206.419 347.472 210.386C336.221 221.637 332.141 233.476 334.584 243.615Z"
                fill="#BCC1CF"/>
        <g filter="url(#filter1_d_232_549)">
            <path
                    d="M587.855 237.217C607.828 242.569 613.821 257.602 603.21 272.417L621.281 274.65C636.152 253.886 627.753 232.815 599.759 225.314C586.569 221.779 571.137 221.833 555.975 224.777L556.618 236.834C567.435 234.734 578.445 234.695 587.855 237.217Z"
                    fill="#573CDA"/>
            <path
                    d="M501.472 251.65C483.776 269.346 483.796 288.5 499.104 300.192L516.043 290.639C505.121 282.298 505.107 268.632 517.733 256.007C527.213 246.527 541.733 239.724 556.619 236.834L555.977 224.777C535.112 228.828 514.76 238.363 501.472 251.65Z"
                    fill="#E08297"/>
            <path
                    d="M598.704 277.704C582.335 294.072 550.939 302.485 528.58 296.494C524.059 295.377 519.8 293.388 516.042 290.64L499.103 300.192C504.371 304.045 510.34 306.832 516.676 308.397C548.016 316.795 592.021 305.003 614.964 282.061C617.269 279.768 619.382 277.29 621.281 274.651L603.21 272.418C601.855 274.3 600.348 276.068 598.704 277.704V277.704Z"
                    fill="url(#paint0_linear_232_549)"/>
        </g>
    </g>
    <defs>
        <filter id="filter0_d_232_549" x="31.2402" y="107.068" width="657.725" height="320.822"
                filterUnits="userSpaceOnUse" color-interpolation-filters="sRGB">
            <feFlood flood-opacity="0" result="BackgroundImageFix"/>
            <feColorMatrix in="SourceAlpha" type="matrix"
                           values="0 0 0 0 0 0 0 0 0 0 0 0 0 0 0 0 0 0 127 0" result="hardAlpha"/>
            <feOffset dy="4"/>
            <feGaussianBlur stdDeviation="2"/>
            <feComposite in2="hardAlpha" operator="out"/>
            <feColorMatrix type="matrix" values="0 0 0 0 0 0 0 0 0 0 0 0 0 0 0 0 0 0 0.15 0"/>
            <feBlend mode="normal" in2="BackgroundImageFix" result="effect1_dropShadow_232_549"/>
            <feBlend mode="normal" in="SourceGraphic" in2="effect1_dropShadow_232_549"
                     result="shape"/>
        </filter>
        <filter id="filter1_d_232_549" x="483.896" y="222.612" width="148.637" height="96.4922"
                filterUnits="userSpaceOnUse" color-interpolation-filters="sRGB">
            <feFlood flood-opacity="0" result="BackgroundImageFix"/>
            <feColorMatrix in="SourceAlpha" type="matrix"
                           values="0 0 0 0 0 0 0 0 0 0 0 0 0 0 0 0 0 0 127 0" result="hardAlpha"/>
            <feOffset dy="4"/>
            <feGaussianBlur stdDeviation="2"/>
            <feComposite in2="hardAlpha" operator="out"/>
            <feColorMatrix type="matrix" values="0 0 0 0 0 0 0 0 0 0 0 0 0 0 0 0 0 0 0.15 0"/>
            <feBlend mode="normal" in2="BackgroundImageFix" result="effect1_dropShadow_232_549"/>
            <feBlend mode="normal" in="SourceGraphic" in2="effect1_dropShadow_232_549"
                     result="shape"/>
        </filter>
        <linearGradient id="paint0_linear_232_549" x1="558.039" y1="279.387" x2="565.67"
                        y2="307.865" gradientUnits="userSpaceOnUse">
            <stop stop-color="#1BC082"/>
            <stop offset="1" stop-color="#23C89A"/>
        </linearGradient>
    </defs>
</svg>